HIERARCHY
ROOT Joint1
{
	OFFSET 0.000000 0.000000 0.000000
	CHANNELS 6 Xposition Yposition Zposition Xrotation Yrotation Zrotation
	JOINT Joint2
	{
		OFFSET -0.000000 0.000000 1.456275
		CHANNELS 6 Xposition Yposition Zposition Xrotation Yrotation Zrotation
		JOINT Joint3
		{
			OFFSET -0.000000 0.000002 1.471446
			CHANNELS 6 Xposition Yposition Zposition Xrotation Yrotation Zrotation
			JOINT Joint4
			{
				OFFSET 0.625745 0.000000 0.917755
				CHANNELS 6 Xposition Yposition Zposition Xrotation Yrotation Zrotation
				JOINT Joint5
				{
					OFFSET -0.629534 0.000001 0.940221
					CHANNELS 6 Xposition Yposition Zposition Xrotation Yrotation Zrotation
					JOINT Joint6
					{
						OFFSET -0.000001 0.113772 1.960660
						CHANNELS 6 Xposition Yposition Zposition Xrotation Yrotation Zrotation
						JOINT Joint7
						{
							OFFSET -0.669733 -0.113771 0.388340
							CHANNELS 6 Xposition Yposition Zposition Xrotation Yrotation Zrotation
							End Site
							{
								OFFSET 0.005509 0.005509 0.438980
							}
						}
					}
				}
			}
		}
	}
}
MOTION
Frames: 14
Frame Time: 0.041667
0.000000 0.000000 0.000000 -0.000000 1.019410 16.729065 -0.000000 -0.000000 1.456275 -0.000000 -9.034562 -0.000000 -0.000000 0.000002 1.471446 -0.000000 -1.133457 26.856977 0.625744 0.000000 0.917755 0.000004 146.088211 0.000002 -0.629533 0.000001 0.940220 -0.000003 1.709736 39.680066 -0.000001 0.113772 1.960661 -88.303875 142.692842 0.000004 -0.669733 -0.113771 0.388340 0.137594 3.118827 79.034250 
0.000000 0.000000 0.000000 -0.000000 1.019410 17.199692 -0.000000 0.000000 1.456275 -0.000000 -8.023928 0.000000 -0.000000 0.000002 1.471446 -0.000001 -1.133457 27.613014 0.625744 0.000000 0.917755 0.000004 146.399368 -0.000001 -0.629534 0.000001 0.940220 -0.000001 1.709735 40.795941 -0.000001 0.113772 1.960661 -88.303875 144.174857 -0.000002 -0.669733 -0.113771 0.388340 0.152900 3.095517 77.462446 
0.000000 0.000000 0.000000 -0.000000 1.019410 17.860811 -0.000000 0.000000 1.456275 0.000000 -6.604219 0.000001 -0.000000 0.000002 1.471446 -0.000001 -1.133457 28.675077 0.625744 0.000000 0.917754 0.000004 146.836513 -0.000000 -0.629534 0.000001 0.940221 0.000000 1.709734 42.363487 -0.000001 0.113772 1.960660 -88.303882 146.256699 -0.000001 -0.669733 -0.113771 0.388340 0.173314 3.062073 75.254505 
0.000000 0.000000 0.000000 -0.000000 1.019410 18.523562 -0.000000 0.000000 1.456275 -0.000000 -5.181004 0.000001 -0.000000 0.000002 1.471446 -0.000001 -1.133457 29.739767 0.625744 0.000000 0.917755 0.000006 147.274711 -0.000001 -0.629534 0.000001 0.940221 -0.000002 1.709734 43.934902 -0.000001 0.113772 1.960660 -88.303882 148.343717 0.000003 -0.669733 -0.113771 0.388340 0.192465 3.027782 73.041182 
0.000000 0.000000 0.000000 -0.000000 1.019410 18.998181 -0.000000 0.000000 1.456275 -0.000000 -4.161796 0.000000 -0.000000 0.000002 1.471446 -0.000001 -1.133457 30.502218 0.625745 0.000000 0.917755 0.000003 147.588531 0.000001 -0.629534 0.000001 0.940221 0.000001 1.709737 45.060240 -0.000001 0.113772 1.960660 -88.303875 149.838286 -0.000000 -0.669733 -0.113771 0.388340 0.205352 3.002789 71.456203 
0.000000 0.000000 0.000000 -0.000000 1.019410 19.382774 -0.000000 -0.000000 1.456275 0.000000 -3.335902 -0.000002 -0.000000 0.000002 1.471446 -0.000001 -1.133457 31.120049 0.625744 0.000000 0.917755 0.000006 147.842832 0.000000 -0.629534 0.000001 0.940221 0.000001 1.709733 45.972135 -0.000001 0.113772 1.960660 -88.303875 151.049374 0.000003 -0.669733 -0.113771 0.388340 0.215284 2.982281 70.171888 
0.000000 0.000000 0.000000 -0.000000 1.019410 19.847433 -0.000000 -0.000000 1.456275 -0.000000 -2.338081 0.000001 -0.000000 0.000002 1.471445 -0.000001 -1.133457 31.866504 0.625745 0.000000 0.917755 0.000002 148.150054 0.000001 -0.629534 0.000001 0.940221 -0.000001 1.709735 47.073858 -0.000001 0.113772 1.960660 -88.303875 152.512592 0.000003 -0.669733 -0.113771 0.388340 0.226674 2.957208 68.620247 
0.000000 0.000000 0.000000 -0.000000 1.019410 20.496491 -0.000000 -0.000000 1.456275 -0.000000 -0.944273 -0.000001 -0.000000 0.000002 1.471446 -0.000001 -1.133457 32.909204 0.625744 0.000000 0.917755 0.000003 148.579209 0.000001 -0.629533 0.000001 0.940221 0.000000 1.709736 48.612806 -0.000001 0.113772 1.960660 -88.303882 154.556485 0.000003 -0.669733 -0.113771 0.388340 0.241429 2.921696 66.452891 
0.000000 0.000000 0.000000 -0.000000 1.019410 21.171307 -0.000000 -0.000000 1.456275 -0.000000 0.504843 -0.000000 -0.000000 0.000002 1.471445 -0.000001 -1.133457 33.993261 0.625744 0.000000 0.917755 0.000004 149.025384 -0.000001 -0.629534 0.000001 0.940221 -0.000000 1.709736 50.212819 -0.000001 0.113772 1.960661 -88.303882 156.681466 -0.000002 -0.669733 -0.113771 0.388340 0.255332 2.884213 64.199646 
0.000000 0.000000 0.000000 -0.000000 1.019410 21.698918 -0.000000 -0.000000 1.456275 0.000000 1.637860 -0.000001 -0.000000 0.000002 1.471446 -0.000001 -1.133457 34.840850 0.625744 0.000000 0.917755 0.000004 149.374229 -0.000002 -0.629534 0.000001 0.940221 -0.000000 1.709738 51.463816 -0.000001 0.113772 1.960660 -88.303875 158.342923 0.000001 -0.669733 -0.113771 0.388340 0.265166 2.854539 62.437942 
0.000000 0.000000 0.000000 -0.000000 1.019410 22.112133 -0.000000 -0.000000 1.456275 -0.000000 2.525207 -0.000002 -0.000000 0.000002 1.471445 -0.000001 -1.133457 35.504665 0.625745 0.000000 0.917755 0.000002 149.647450 -0.000005 -0.629534 0.000001 0.940221 -0.000002 1.709738 52.443565 -0.000001 0.113772 1.960660 -88.303882 159.644129 0.000001 -0.669733 -0.113771 0.388339 0.272230 2.831098 61.058271 
0.000000 0.000000 0.000000 -0.000000 1.019410 22.495180 -0.000000 0.000000 1.456275 -0.000000 3.347766 0.000001 -0.000000 0.000002 1.471446 -0.000001 -1.133457 36.120004 0.625744 0.000000 0.917755 0.000003 149.900727 0.000001 -0.629534 0.000001 0.940221 -0.000002 1.709739 53.351779 -0.000001 0.113772 1.960661 -88.303882 160.850340 0.000002 -0.669733 -0.113771 0.388340 0.278271 2.809226 59.779352 
0.000000 0.000000 0.000000 -0.000000 1.019410 22.914260 -0.000000 -0.000000 1.456275 0.000000 4.247726 0.000002 -0.000000 0.000002 1.471446 -0.000001 -1.133457 36.793252 0.625744 0.000000 0.917755 0.000004 150.177814 -0.000003 -0.629534 0.000001 0.940221 -0.000001 1.709740 54.345449 -0.000001 0.113772 1.960661 -88.303882 162.170042 0.000002 -0.669733 -0.113771 0.388340 0.284318 2.785143 58.380127 
0.000000 0.000000 0.000000 -0.000000 1.019410 23.363518 -0.000000 -0.000000 1.456275 -0.000000 5.212471 -0.000001 -0.000000 0.000002 1.471446 -0.000001 -1.133456 37.514954 0.625745 0.000000 0.917755 0.000003 150.474859 -0.000002 -0.629534 0.000001 0.940221 -0.000002 1.709738 55.410647 -0.000001 0.113772 1.960661 -88.303882 163.584752 0.000002 -0.669733 -0.113771 0.388340 0.290143 2.759173 56.880214 
